<svg xmlns="http://www.w3.org/2000/svg" xmlns:svg="http://www.w3.org/2000/svg" xmlns:xlink="http://www.w3.org/1999/xlink" version="1.0" height="649.9999999999999pt" width="1173.5pt" viewBox="291.49999999999994 -63 1181.5 655.9999999999999" ><defs><style type="text/css">
            @font-face {
                font-family: 'lt_regular';
                src: url('https://app.creately.com/diagram/assets/fonts/lato/lt-regular-webfont.woff2') format('woff2'),
                    url('https://app.creately.com/diagram/assets/fonts/lato/lt-regular-webfont.woff') format('woff');
                font-weight: normal;
                font-style: normal;
            }
            @font-face {
                font-family: 'noto_regular';
                src: url('https://app.creately.com/diagram/assets/fonts/noto/noto-regular.woff') format('woff'),
                     url('https://app.creately.com/diagram/assets/fonts/noto/noto-regular.woff2') format('woff2');
                font-weight: normal;
                font-style: normal;
            }
        p {
            margin: 0;
        }
        </style></defs><defs><style>
            span{ display: inline-block; }
        </style></defs><g id="ahtSi1Dgggy"><g transform="translate(309.99999999999994 320)"><rect x="0" y="0" width="119.99999999999991" height="59.99999999999996" fill="rgb(52,64,87)" stroke="#344057" stroke-width="2" stroke-linecap="round" stroke-linejoin="round" stroke-dasharray="0 0"/></g><g transform="translate(329.9999999999999, 337) rotate(0, 40, 13)" width="80" height="26"><text text-decoration="none" x="0" fill="#ffffff" font-size="14pt" font-family="lt_regular"  y="20">Customer</text><text text-decoration="none" x="83" fill="#4b4b4b" font-size="10pt" font-family="noto_regular"  y="20"></text></g></g><g id="UYvJYFH1xzk"><g transform="translate(580.0000000000002 110)"><rect x="0" y="0" width="119.9999999999999" height="59.99999999999995" fill="rgb(209,83,77)" stroke="#d1534d" stroke-width="2" stroke-linecap="round" stroke-linejoin="round" stroke-dasharray="0 0"/></g><g transform="translate(603.0000000000002, 126.99999999999997) rotate(0, 37, 13)" width="74" height="26"><text text-decoration="none" x="0" fill="#ffffff" font-size="14pt" font-family="lt_regular"  y="20">Operator</text><text text-decoration="none" x="77" fill="#4b4b4b" font-size="10pt" font-family="noto_regular"  y="20"></text></g></g><g id="EwksbC1ogOC"><g transform="translate(579.9999999999998 530)"><rect x="0" y="0" width="119.99999999999984" height="59.99999999999992" fill="rgb(209,83,77)" stroke="#d1534d" stroke-width="2" stroke-linecap="round" stroke-linejoin="round" stroke-dasharray="0 0"/></g><g transform="translate(589.4999999999998, 534) rotate(0, 50.5, 26)" width="101" height="52"><text text-decoration="none" x="0" fill="#ffffff" font-size="14pt" font-family="lt_regular"  y="20">Workstation&#160;</text><text text-decoration="none" x="15" fill="#ffffff" font-size="14pt" font-family="lt_regular"  y="46">Desktop</text><text text-decoration="none" x="86" fill="#4b4b4b" font-size="10pt" font-family="noto_regular"  y="46"></text></g></g><g id="fVtFOZLZjEM"><g transform="translate(829.9999999999999 319.99999999999994)"><rect x="0" y="0" width="119.99999999999984" height="59.99999999999992" fill="rgb(56,128,189)" stroke="#3880bd" stroke-width="2" stroke-linecap="round" stroke-linejoin="round" stroke-dasharray="0 0"/></g><g transform="translate(842.9999999999998, 323.9999999999999) rotate(0, 47, 26)" width="94" height="52"><text text-decoration="none" x="30" fill="#ffffff" font-size="14pt" font-family="lt_regular"  y="20">Taxi&#160;</text><text text-decoration="none" x="17.5" fill="#ffffff" font-size="14pt" font-family="lt_regular"  y="46">service&#160;</text><text text-decoration="none" x="21" fill="#ffffff" font-size="14pt" font-family="lt_regular"  y="72">server</text><text text-decoration="none" x="73" fill="#4b4b4b" font-size="10pt" font-family="noto_regular"  y="72"></text></g></g><g id="qCaDkp0SgoB"><g transform="translate(1220 160)"><rect x="0" y="0" width="119.99999999999996" height="59.99999999999998" fill="rgb(241,191,49)" stroke="#f1bf31" stroke-width="2" stroke-linecap="round" stroke-linejoin="round" stroke-dasharray="0 0"/></g><g transform="translate(1236.5, 177) rotate(0, 43.5, 13)" width="87" height="26"><text text-decoration="none" x="26.5" fill="#ffffff" font-size="14pt" font-family="lt_regular"  y="20">Taxi&#160;</text><text text-decoration="none" x="17" fill="#ffffff" font-size="14pt" font-family="lt_regular"  y="46">Driver</text><text text-decoration="none" x="70" fill="#4b4b4b" font-size="10pt" font-family="noto_regular"  y="46"></text></g></g><g id="VLaBpbz1yyI"><g transform="translate(1350 320)"><rect x="0" y="0" width="119.99999999999989" height="59.99999999999994" fill="rgb(241,191,49)" stroke="#f1bf31" stroke-width="2" stroke-linecap="round" stroke-linejoin="round" stroke-dasharray="0 0"/></g><g transform="translate(1366.5, 337) rotate(0, 43.5, 13)" width="87" height="26"><text text-decoration="none" x="26.5" fill="#ffffff" font-size="14pt" font-family="lt_regular"  y="20">Taxi&#160;</text><text text-decoration="none" x="17" fill="#ffffff" font-size="14pt" font-family="lt_regular"  y="46">Driver</text><text text-decoration="none" x="70" fill="#4b4b4b" font-size="10pt" font-family="noto_regular"  y="46"></text></g></g><g id="uAAtm9D0PQX"><g transform="translate(1200 510)"><rect x="0" y="0" width="119.99999999999999" height="59.99999999999999" fill="rgb(241,191,49)" stroke="#f1bf31" stroke-width="2" stroke-linecap="round" stroke-linejoin="round" stroke-dasharray="0 0"/></g><g transform="translate(1216.5, 527) rotate(0, 43.5, 13)" width="87" height="26"><text text-decoration="none" x="26.5" fill="#ffffff" font-size="14pt" font-family="lt_regular"  y="20">Taxi&#160;</text><text text-decoration="none" x="17" fill="#ffffff" font-size="14pt" font-family="lt_regular"  y="46">Driver</text><text text-decoration="none" x="70" fill="#4b4b4b" font-size="10pt" font-family="noto_regular"  y="46"></text></g></g><g id="u4oKe6RCS5N"><mask id="611af" x="686" y="126" width="218" height="208" maskUnits="userSpaceOnUse"><rect x="686" y="126" width="218" height="208" fill="white" />undefined</mask><g mask="url(#611af)"><path d="M 700,140 L 889.9999999999998,139.99999999999997 L 890,320" fill="none" stroke="#7E7E7E" stroke-width="2" stroke-linecap="round" stroke-linejoin="round"/><path d="M 890,320 L 895.75,311.30434782608694 L 884.25,311.30434782608694 Z" fill="rgb(126,126,126)" stroke="#7E7E7E" stroke-width="2" stroke-linecap="round" stroke-linejoin="round"/></g>undefined</g><g id="h7thSGQhoB7"><g><path d="M 700,560 L 889.9999999999998,560 L 890,380" fill="none" stroke="#7E7E7E" stroke-width="2" stroke-linecap="round" stroke-linejoin="round"/><path d="M 890,380 L 884.25,388.69565217391306 L 895.75,388.69565217391306 Z" fill="rgb(126,126,126)" stroke="#7E7E7E" stroke-width="2" stroke-linecap="round" stroke-linejoin="round"/></g></g><g id="qqSTlMkxRoM"><mask id="93dbd" x="356" y="126" width="238" height="208" maskUnits="userSpaceOnUse"><rect x="356" y="126" width="238" height="208" fill="white" /><rect x="293.49999999999994" y="202.903187562555" width="153" height="32" fill="black" /></mask><g mask="url(#93dbd)"><path d="M 370,320 L 369.9999999999999,139.99999999999997 L 580,140" fill="none" stroke="#7E7E7E" stroke-width="2" stroke-linecap="round" stroke-linejoin="round"/><path d="M 580,140 L 571.304347826087,134.25 L 571.304347826087,145.75 Z" fill="rgb(126,126,126)" stroke="#7E7E7E" stroke-width="2" stroke-linecap="round" stroke-linejoin="round"/></g><g transform="translate(296.49999999999994, 205.903187562555)" width="147" height="26"><text text-decoration="none" x="25.5" fill="#4b4b4b" font-size="14pt" font-family="lt_regular"  y="20">Booking&#160;</text><text text-decoration="none" x="100.5" fill="#4b4b4b" font-size="14pt" font-family="lt_regular"  y="20">by&#160;</text><text text-decoration="none" x="46.5" fill="#4b4b4b" font-size="14pt" font-family="lt_regular"  y="46">phone</text><text text-decoration="none" x="100.5" fill="#4b4b4b" font-size="10pt" font-family="noto_regular"  y="46"></text></g></g><g id="FTTtRhWLuS1"><mask id="b8721" x="356" y="366" width="238" height="208" maskUnits="userSpaceOnUse"><rect x="356" y="366" width="238" height="208" fill="white" /><rect x="304.99999999999994" y="460.88624321226246" width="130" height="32" fill="black" /></mask><g mask="url(#b8721)"><path d="M 370,380 L 369.9999999999999,560 L 580,560" fill="none" stroke="#7E7E7E" stroke-width="2" stroke-linecap="round" stroke-linejoin="round"/><path d="M 580,560 L 571.304347826087,554.25 L 571.304347826087,565.75 Z" fill="rgb(126,126,126)" stroke="#7E7E7E" stroke-width="2" stroke-linecap="round" stroke-linejoin="round"/></g><g transform="translate(307.99999999999994, 463.88624321226246)" width="124" height="26"><text text-decoration="none" x="34" fill="#4b4b4b" font-size="14pt" font-family="lt_regular"  y="20">Online&#160;</text><text text-decoration="none" x="27.5" fill="#4b4b4b" font-size="14pt" font-family="lt_regular"  y="46">booking</text><text text-decoration="none" x="96.5" fill="#4b4b4b" font-size="10pt" font-family="noto_regular"  y="46"></text></g></g><g id="nSLhfHSDmlx"><g><path d="M 1220,190 L 950,350" fill="none" stroke="#7E7E7E" stroke-width="2" stroke-linecap="round" stroke-linejoin="round"/><path d="M 1220,190 L 1209.58784031112,189.48638794509682 L 1215.4505677995899,199.37974058188982 Z" fill="rgb(126,126,126)" stroke="#7E7E7E" stroke-width="2" stroke-linecap="round" stroke-linejoin="round"/><path d="M 950,350 L 960.4121596888799,350.5136120549032 L 954.54943220041,340.62025941811015 Z" fill="rgb(126,126,126)" stroke="#7E7E7E" stroke-width="2" stroke-linecap="round" stroke-linejoin="round"/></g></g><g id="zxaO7LNdFny"><g><path d="M 950,350 L 1140,349.9999999999999 Q 1140,349.9999999999999 1150,350 Q 1160,350 1160,350 L 1350,350" fill="none" stroke="#7E7E7E" stroke-width="2" stroke-linecap="round" stroke-linejoin="round"/><path d="M 1350,350 L 1341.304347826087,344.25 L 1341.304347826087,355.75 Z" fill="rgb(126,126,126)" stroke="#7E7E7E" stroke-width="2" stroke-linecap="round" stroke-linejoin="round"/></g></g><g id="ghlUxpOwpsa"><g><path d="M 978,349 L 978,349" fill="none" stroke="#7E7E7E" stroke-width="2" stroke-linecap="round" stroke-linejoin="round"/></g></g><g id="XXrfhqftMod"><g><path d="M 1200,540 L 950,350" fill="none" stroke="#7E7E7E" stroke-width="2" stroke-linecap="round" stroke-linejoin="round"/><path d="M 1200,540 L 1196.556079274204,530.1604737530656 L 1189.597621697568,539.3163389854813 Z" fill="rgb(126,126,126)" stroke="#7E7E7E" stroke-width="2" stroke-linecap="round" stroke-linejoin="round"/></g></g><g id="7ZKNUXX0kPY"><g transform="translate(359.99999999999994 -60)"><rect x="0" y="0" width="630.0000000000006" height="99.99999999999919" fill="rgba(255,255,255,0.01)" stroke="rgba(255,255,255,0.01)"/></g><g transform="translate(369.99999999999994, -50) rotate(0, 0, 0)" width="401" height="44"><text text-decoration="underline" x="0" fill="rgb(0, 0, 0)" font-size="24pt" font-family="lt_regular"  y="35">TAXI&#160;</text><text text-decoration="underline" x="79" fill="rgb(0, 0, 0)" font-size="24pt" font-family="lt_regular"  y="35">SERVICE&#160;</text><text text-decoration="underline" x="0" fill="rgb(0, 0, 0)" font-size="24pt" font-family="lt_regular"  y="79">WORKFLOW</text><text text-decoration="none" x="193" fill="#4b4b4b" font-size="10pt" font-family="noto_regular"  y="79"></text></g></g></svg>